<svg preserveAspectRatio="none" width="100%" height="100%" overflow="visible" style="display: block;" viewBox="0 0 24 24" fill="none" xmlns="http://www.w3.org/2000/svg">
<g id="UserPlus-Regular">
<path id="Vector" d="M17.4997 13.25C17.8997 13.25 18.2497 13.59 18.2497 14V16.75H20.9997C21.1986 16.75 21.3894 16.8291 21.5301 16.9697C21.6707 17.1104 21.7497 17.3011 21.7497 17.5C21.7497 17.6989 21.6707 17.8897 21.5301 18.0304C21.3894 18.171 21.1986 18.25 20.9997 18.25H18.2497V21C18.2497 21.1989 18.1707 21.3897 18.0301 21.5304C17.8894 21.671 17.6986 21.75 17.4997 21.75C17.3008 21.75 17.11 21.671 16.9694 21.5304C16.8287 21.3897 16.7497 21.1989 16.7497 21V18.25H13.9997C13.8008 18.25 13.61 18.171 13.4694 18.0304C13.3287 17.8897 13.2497 17.6989 13.2497 17.5C13.2497 17.3011 13.3287 17.1104 13.4694 16.9697C13.61 16.8291 13.8008 16.75 13.9997 16.75H16.7497V14C16.7497 13.59 17.0797 13.25 17.4997 13.25Z" fill="var(--fill-0, white)"/>
<path id="Vector_2" fill-rule="evenodd" clip-rule="evenodd" d="M12 3.25005C13.1106 3.24628 14.1938 3.5948 15.0938 4.24551C15.9938 4.89621 16.6643 5.81557 17.0088 6.87138C17.3534 7.9272 17.3542 9.06507 17.0112 10.1214C16.6682 11.1777 15.9991 12.098 15.1 12.7501C15.2148 12.8654 15.289 13.0149 15.3114 13.176C15.3338 13.3372 15.3032 13.5012 15.2241 13.6435C15.1451 13.7857 15.022 13.8984 14.8733 13.9645C14.7247 14.0306 14.5585 14.0466 14.4 14.0101C13.6733 13.8367 12.8733 13.7501 12 13.7501C8.67 13.7501 6.34 15.0701 5.33 17.2101C5.19 17.5101 5.13 17.6401 5.1 17.7601C5.08 17.8601 5.07 17.9701 5.1 18.2001C5.11334 18.2801 5.18334 18.4301 5.31 18.6501C5.46334 18.8634 5.57 18.9901 5.63 19.0301C5.92 19.2301 6.15 19.2501 7.2 19.2501H12.32C12.5189 19.2501 12.7097 19.3291 12.8503 19.4697C12.991 19.6104 13.07 19.8011 13.07 20.0001C13.07 20.199 12.991 20.3897 12.8503 20.5304C12.7097 20.671 12.5189 20.7501 12.32 20.7501H7.2C6.27 20.7501 5.52 20.7701 4.78 20.2601C4.48 20.0601 4.23 19.7401 4.05 19.4601C3.84124 19.1665 3.69756 18.8318 3.62858 18.4783C3.5596 18.1247 3.5669 17.7605 3.65 17.4101C3.73 17.1101 3.83667 16.8301 3.97 16.5701C4.44565 15.6079 5.12491 14.7607 5.96067 14.0872C6.79643 13.4138 7.76869 12.9302 8.81 12.6701C7.93197 12.0063 7.28523 11.083 6.96154 10.031C6.63785 8.97897 6.65364 7.85176 7.00668 6.80924C7.35972 5.76673 8.03208 4.86185 8.92836 4.22299C9.82465 3.58412 10.8994 3.24371 12 3.25005ZM12 4.75005C11.0054 4.75005 10.0516 5.14514 9.34835 5.8484C8.64509 6.55166 8.25 7.50549 8.25 8.50005C8.25 9.49461 8.64509 10.4484 9.34835 11.1517C10.0516 11.855 11.0054 12.2501 12 12.2501C12.9946 12.2501 13.9484 11.855 14.6517 11.1517C15.3549 10.4484 15.75 9.49461 15.75 8.50005C15.75 7.50549 15.3549 6.55166 14.6517 5.8484C13.9484 5.14514 12.9946 4.75005 12 4.75005Z" fill="var(--fill-0, white)"/>
</g>
</svg>
