<svg preserveAspectRatio="none" width="100%" height="100%" overflow="visible" style="display: block;" viewBox="0 0 24 24" fill="none" xmlns="http://www.w3.org/2000/svg">
<g id="CloudUpload-Regular">
<path id="Vector" d="M12.0001 4.24999C13.302 4.25704 14.5746 4.63772 15.6666 5.34678C16.7585 6.05585 17.624 7.0635 18.1601 8.24999C19.6851 8.27121 21.1392 8.89736 22.2025 9.9907C23.2658 11.084 23.8513 12.555 23.8301 14.08C23.8089 15.605 23.1827 17.0591 22.0894 18.1224C20.996 19.1858 19.5251 19.7712 18.0001 19.75H16.0001C15.8012 19.75 15.6104 19.671 15.4697 19.5303C15.3291 19.3897 15.2501 19.1989 15.2501 19C15.2501 18.8011 15.3291 18.6103 15.4697 18.4697C15.6104 18.329 15.8012 18.25 16.0001 18.25H18.0001C18.5705 18.2502 19.1352 18.1355 19.6604 17.9129C20.1856 17.6902 20.6606 17.3641 21.057 16.9539C21.4535 16.5438 21.7634 16.0581 21.9682 15.5256C22.1729 14.9932 22.2684 14.425 22.249 13.8549C22.2295 13.2848 22.0955 12.7244 21.8548 12.2072C21.6142 11.69 21.2719 11.2265 20.8484 10.8444C20.4248 10.4623 19.9287 10.1694 19.3895 9.98305C18.8503 9.79674 18.2792 9.72088 17.7101 9.75999C17.5461 9.77144 17.3829 9.72871 17.2456 9.63838C17.1083 9.54804 17.0045 9.4151 16.9501 9.25999C16.5377 8.09299 15.7262 7.10923 14.659 6.48237C13.5917 5.85551 12.3373 5.62588 11.1172 5.83402C9.89713 6.04215 8.7898 6.67467 7.99074 7.61989C7.19167 8.56512 6.75226 9.76227 6.75007 11V11.11C6.7519 11.2248 6.72734 11.3385 6.67829 11.4423C6.62924 11.5461 6.557 11.6373 6.46715 11.7088C6.3773 11.7803 6.27223 11.8302 6.16004 11.8547C6.04785 11.8792 5.93154 11.8776 5.82007 11.85C5.3392 11.7266 4.8365 11.7147 4.35033 11.8152C3.86416 11.9157 3.40736 12.1259 3.01476 12.4297C2.62217 12.7336 2.30415 13.1231 2.08498 13.5685C1.8658 14.0139 1.75126 14.5036 1.75007 15C1.75007 16.8 3.21007 18.25 5.00007 18.25H8.00007C8.19899 18.25 8.38975 18.329 8.5304 18.4697C8.67106 18.6103 8.75007 18.8011 8.75007 19C8.75007 19.1989 8.67106 19.3897 8.5304 19.5303C8.38975 19.671 8.19899 19.75 8.00007 19.75H5.00007C4.37629 19.7303 3.7625 19.5879 3.19375 19.331C2.62499 19.0741 2.1124 18.7077 1.68525 18.2527C1.2581 17.7977 0.924754 17.263 0.704243 16.6792C0.483732 16.0953 0.380375 15.4738 0.400073 14.85C0.419771 14.2262 0.562139 13.6124 0.819048 13.0437C1.07596 12.4749 1.44237 11.9623 1.89738 11.5352C2.35239 11.108 2.88707 10.7747 3.47091 10.5542C4.05474 10.3337 4.67629 10.2303 5.30007 10.25C5.66007 6.87999 8.52007 4.24999 12.0001 4.24999Z" fill="var(--fill-0, #111111)"/>
<path id="Vector_2" d="M11.4699 10.47C11.7699 10.17 12.2399 10.17 12.5299 10.47L16.5299 14.47C16.6036 14.5387 16.6627 14.6215 16.7037 14.7135C16.7447 14.8055 16.7667 14.9048 16.7685 15.0055C16.7703 15.1062 16.7518 15.2062 16.714 15.2996C16.6763 15.393 16.6202 15.4778 16.5489 15.549C16.4777 15.6203 16.3929 15.6764 16.2995 15.7141C16.2061 15.7518 16.1061 15.7704 16.0054 15.7686C15.9047 15.7668 15.8054 15.7448 15.7134 15.7038C15.6214 15.6628 15.5386 15.6037 15.4699 15.53L12.7499 12.81V19C12.7499 19.1989 12.6709 19.3897 12.5302 19.5303C12.3896 19.671 12.1988 19.75 11.9999 19.75C11.801 19.75 11.6102 19.671 11.4696 19.5303C11.3289 19.3897 11.2499 19.1989 11.2499 19V12.81L8.52991 15.53C8.46125 15.6037 8.37845 15.6628 8.28645 15.7038C8.19445 15.7448 8.09513 15.7668 7.99443 15.7686C7.89373 15.7704 7.7937 15.7518 7.70031 15.7141C7.60692 15.6764 7.52209 15.6203 7.45087 15.549C7.37965 15.4778 7.32351 15.393 7.28579 15.2996C7.24807 15.2062 7.22954 15.1062 7.23132 15.0055C7.23309 14.9048 7.25514 14.8055 7.29613 14.7135C7.33712 14.6215 7.39622 14.5387 7.46991 14.47L11.4699 10.47Z" fill="var(--fill-0, #111111)"/>
</g>
</svg>
