<svg preserveAspectRatio="none" width="100%" height="100%" overflow="visible" style="display: block;" viewBox="0 0 16 16" fill="none" xmlns="http://www.w3.org/2000/svg">
<g id="ChevronDown-Regular">
<path id="Vector" d="M12.3133 5.64666C12.359 5.59753 12.4142 5.55813 12.4756 5.5308C12.5369 5.50348 12.6031 5.48878 12.6703 5.4876C12.7374 5.48641 12.8041 5.49876 12.8663 5.52391C12.9286 5.54906 12.9852 5.58649 13.0326 5.63397C13.0801 5.68144 13.1175 5.738 13.1427 5.80026C13.1678 5.86252 13.1802 5.9292 13.179 5.99634C13.1778 6.06347 13.1631 6.12968 13.1358 6.19102C13.1085 6.25235 13.0691 6.30755 13.0199 6.35332L8.35327 11.02C8.25952 11.1136 8.13244 11.1662 7.99994 11.1662C7.86744 11.1662 7.74036 11.1136 7.64661 11.02L2.97994 6.35332C2.93081 6.30755 2.89141 6.25235 2.86409 6.19102C2.83676 6.12968 2.82206 6.06347 2.82088 5.99634C2.81969 5.9292 2.83204 5.86252 2.85719 5.80026C2.88234 5.738 2.91977 5.68144 2.96725 5.63397C3.01473 5.58649 3.07128 5.54906 3.13354 5.52391C3.1958 5.49876 3.26249 5.48641 3.32962 5.4876C3.39676 5.48878 3.46297 5.50348 3.5243 5.5308C3.58563 5.55813 3.64083 5.59753 3.68661 5.64666L7.99994 9.95999L12.3133 5.64666Z" fill="var(--fill-0, #5D5D5D)"/>
</g>
</svg>
