<svg preserveAspectRatio="none" width="100%" height="100%" overflow="visible" style="display: block;" viewBox="0 0 14 14" fill="none" xmlns="http://www.w3.org/2000/svg">
<g id="InfoCircle-Regular">
<path id="Vector" d="M7 6.27083C7.23917 6.27083 7.4375 6.46917 7.4375 6.70833V9.625C7.4375 9.74103 7.39141 9.85231 7.30936 9.93436C7.22731 10.0164 7.11603 10.0625 7 10.0625C6.88397 10.0625 6.77269 10.0164 6.69064 9.93436C6.60859 9.85231 6.5625 9.74103 6.5625 9.625V6.70833C6.5625 6.46917 6.76083 6.27083 7 6.27083ZM7 3.9375C7.19339 3.9375 7.37885 4.01432 7.5156 4.15107C7.65234 4.28781 7.72917 4.47328 7.72917 4.66667C7.72917 4.86005 7.65234 5.04552 7.5156 5.18227C7.37885 5.31901 7.19339 5.39583 7 5.39583C6.80661 5.39583 6.62115 5.31901 6.4844 5.18227C6.34766 5.04552 6.27083 4.86005 6.27083 4.66667C6.27083 4.47328 6.34766 4.28781 6.4844 4.15107C6.62115 4.01432 6.80661 3.9375 7 3.9375Z" fill="var(--fill-0, #FE641F)"/>
<path id="Vector_2" fill-rule="evenodd" clip-rule="evenodd" d="M7 1.3125C8.50842 1.3125 9.95506 1.91172 11.0217 2.97833C12.0883 4.04494 12.6875 5.49158 12.6875 7C12.6875 8.50842 12.0883 9.95506 11.0217 11.0217C9.95506 12.0883 8.50842 12.6875 7 12.6875C5.49158 12.6875 4.04494 12.0883 2.97833 11.0217C1.91172 9.95506 1.3125 8.50842 1.3125 7C1.3125 5.49158 1.91172 4.04494 2.97833 2.97833C4.04494 1.91172 5.49158 1.3125 7 1.3125ZM7 2.1875C5.72365 2.1875 4.49957 2.69453 3.59705 3.59705C2.69453 4.49957 2.1875 5.72365 2.1875 7C2.1875 8.27635 2.69453 9.50043 3.59705 10.403C4.49957 11.3055 5.72365 11.8125 7 11.8125C8.27635 11.8125 9.50043 11.3055 10.403 10.403C11.3055 9.50043 11.8125 8.27635 11.8125 7C11.8125 5.72365 11.3055 4.49957 10.403 3.59705C9.50043 2.69453 8.27635 2.1875 7 2.1875Z" fill="var(--fill-0, #FE641F)"/>
</g>
</svg>
