<svg preserveAspectRatio="none" width="100%" height="100%" overflow="visible" style="display: block;" viewBox="0 0 14 14" fill="none" xmlns="http://www.w3.org/2000/svg">
<g id="ArrowsUpDown-Regular">
<path id="Vector" d="M9.91668 1.89583C10.1559 1.89583 10.3542 2.09417 10.3542 2.33333V11.7775L11.9409 10.1908C12.0238 10.1136 12.1335 10.0715 12.2468 10.0735C12.3602 10.0755 12.4683 10.1214 12.5485 10.2016C12.6286 10.2817 12.6745 10.3899 12.6765 10.5032C12.6785 10.6165 12.6365 10.7262 12.5592 10.8092L10.2259 13.1425C10.0684 13.3 9.81752 13.3175 9.64252 13.1717L9.60752 13.1425L7.27418 10.8092C7.2312 10.7691 7.19672 10.7208 7.17281 10.6671C7.1489 10.6135 7.13604 10.5555 7.13501 10.4968C7.13397 10.4381 7.14478 10.3797 7.16678 10.3252C7.18878 10.2708 7.22154 10.2213 7.26308 10.1797C7.30462 10.1382 7.35411 10.1054 7.40859 10.0834C7.46306 10.0614 7.52141 10.0506 7.58016 10.0517C7.6389 10.0527 7.69683 10.0655 7.7505 10.0895C7.80417 10.1134 7.85247 10.1478 7.89252 10.1908L9.47918 11.7775V2.33333C9.47918 2.09417 9.67752 1.89583 9.91668 1.89583ZM4.08335 1.3125C4.20391 1.3125 4.30696 1.35528 4.39252 1.44083L6.72585 3.77417C6.76884 3.81422 6.80331 3.86252 6.82722 3.91619C6.85114 3.96985 6.86399 4.02779 6.86503 4.08653C6.86607 4.14527 6.85526 4.20362 6.83326 4.2581C6.81125 4.31258 6.7785 4.36206 6.73696 4.40361C6.69541 4.44515 6.64593 4.4779 6.59145 4.4999C6.53697 4.52191 6.47862 4.53271 6.41988 4.53168C6.36114 4.53064 6.3032 4.51778 6.24954 4.49387C6.19587 4.46996 6.14757 4.43548 6.10752 4.3925L4.52085 2.80583V12.25C4.52085 12.366 4.47476 12.4773 4.39271 12.5594C4.31066 12.6414 4.19938 12.6875 4.08335 12.6875C3.96732 12.6875 3.85604 12.6414 3.77399 12.5594C3.69195 12.4773 3.64585 12.366 3.64585 12.25V2.80583L2.05919 4.3925C2.01913 4.43548 1.97083 4.46996 1.91717 4.49387C1.8635 4.51778 1.80557 4.53064 1.74682 4.53168C1.68808 4.53271 1.62973 4.52191 1.57525 4.4999C1.52078 4.4779 1.47129 4.44515 1.42975 4.40361C1.3882 4.36206 1.35545 4.31258 1.33345 4.2581C1.31144 4.20362 1.30064 4.14527 1.30167 4.08653C1.30271 4.02779 1.31557 3.96985 1.33948 3.91619C1.36339 3.86252 1.39787 3.81422 1.44085 3.77417L3.77418 1.44083L3.83835 1.3825C3.91433 1.34343 3.99797 1.32152 4.08335 1.31833" fill="var(--fill-0, #64748B)"/>
</g>
</svg>
