<svg preserveAspectRatio="none" width="100%" height="100%" overflow="visible" style="display: block;" viewBox="0 0 18 18" fill="none" xmlns="http://www.w3.org/2000/svg">
<g id="Search-Regular">
<path id="Vector" fill-rule="evenodd" clip-rule="evenodd" d="M8.16017 1.59748C9.39267 1.59907 10.5998 1.94771 11.6434 2.60348C12.6869 3.25925 13.5247 4.19563 14.0608 5.30542C14.5969 6.41521 14.8097 7.65354 14.6747 8.87862C14.5398 10.1037 14.0625 11.266 13.2977 12.2325L16.1852 15.1275C16.2637 15.1947 16.3274 15.2775 16.3725 15.3705C16.4175 15.4636 16.4428 15.5649 16.4468 15.6682C16.4508 15.7715 16.4334 15.8745 16.3957 15.9707C16.3579 16.067 16.3008 16.1544 16.2277 16.2275C16.1546 16.3006 16.0672 16.3578 15.9709 16.3955C15.8747 16.4332 15.7717 16.4506 15.6684 16.4466C15.5651 16.4426 15.4637 16.4173 15.3707 16.3723C15.2776 16.3273 15.1949 16.2635 15.1277 16.185L12.2327 13.2975C11.4124 13.9494 10.448 14.3954 9.42009 14.5983C8.39216 14.8012 7.3306 14.755 6.32419 14.4635C5.31778 14.1721 4.39577 13.6439 3.63528 12.9232C2.87479 12.2025 2.29793 11.3102 1.95293 10.3208C1.60794 9.3315 1.50484 8.27395 1.65226 7.23662C1.79968 6.19928 2.19334 5.21233 2.80031 4.35829C3.40728 3.50426 4.20992 2.80797 5.14109 2.32765C6.07227 1.84734 7.10492 1.59697 8.15267 1.59748M8.15267 2.72248C7.43861 2.72248 6.73154 2.86313 6.07183 3.13639C5.41212 3.40965 4.8127 3.81017 4.30778 4.31509C3.80286 4.82001 3.40234 5.41943 3.12908 6.07914C2.85582 6.73885 2.71517 7.44592 2.71517 8.15998C2.71517 8.87404 2.85582 9.58112 3.12908 10.2408C3.40234 10.9005 3.80286 11.5 4.30778 12.0049C4.8127 12.5098 5.41212 12.9103 6.07183 13.1836C6.73154 13.4568 7.43861 13.5975 8.15267 13.5975C9.59479 13.5975 10.9778 13.0246 11.9976 12.0049C13.0173 10.9851 13.5902 9.6021 13.5902 8.15998C13.5902 6.71787 13.0173 5.33482 11.9976 4.31509C10.9778 3.29536 9.59479 2.72248 8.15267 2.72248Z" fill="var(--fill-0, #111111)"/>
</g>
</svg>
