<svg preserveAspectRatio="none" width="100%" height="100%" overflow="visible" style="display: block;" viewBox="0 0 16 16" fill="none" xmlns="http://www.w3.org/2000/svg">
<g id="ChevronDown-Regular">
<path id="Vector" d="M5.14669 4.18621C5.09756 4.14043 5.05816 4.08523 5.03083 4.0239C5.00351 3.96257 4.98881 3.89636 4.98763 3.82922C4.98644 3.76209 4.99879 3.6954 5.02394 3.63314C5.04909 3.57088 5.08652 3.51433 5.134 3.46685C5.18148 3.41937 5.23803 3.38194 5.30029 3.35679C5.36255 3.33165 5.42923 3.3193 5.49637 3.32048C5.5635 3.32167 5.62971 3.33636 5.69105 3.36369C5.75238 3.39102 5.80758 3.43042 5.85335 3.47954L10.52 8.14621C10.6137 8.23996 10.6662 8.36704 10.6662 8.49954C10.6662 8.63204 10.6137 8.75912 10.52 8.85287L5.85335 13.5195C5.80758 13.5687 5.75238 13.6081 5.69105 13.6354C5.62971 13.6627 5.5635 13.6774 5.49637 13.6786C5.42923 13.6798 5.36255 13.6674 5.30029 13.6423C5.23803 13.6171 5.18148 13.5797 5.134 13.5322C5.08652 13.4848 5.04909 13.4282 5.02394 13.3659C4.99879 13.3037 4.98644 13.237 4.98763 13.1699C4.98881 13.1027 5.00351 13.0365 5.03083 12.9752C5.05816 12.9139 5.09756 12.8586 5.14669 12.8129L9.46002 8.49954L5.14669 4.18621Z" fill="var(--fill-0, #0C335C)"/>
</g>
</svg>
