<svg preserveAspectRatio="none" width="100%" height="100%" overflow="visible" style="display: block;" viewBox="0 0 24 24" fill="none" xmlns="http://www.w3.org/2000/svg">
<g id="Phone-Regular">
<path id="Vector" fill-rule="evenodd" clip-rule="evenodd" d="M6.67 2.27003C7.12 2.34003 7.46 2.62003 7.69 2.98003L7.71 3.01003L7.72 3.03003L9.24 5.79003L9.45 6.19003C9.65 6.55003 9.79333 6.87336 9.88 7.16003C10 7.55003 10.04 7.94003 9.92 8.32003C9.8 8.70003 9.56 8.94003 9.37 9.12003C9.14 9.32003 9.02 9.42003 8.79 9.64003C8.67667 9.74669 8.63667 9.88003 8.67 10.04C8.70333 10.2734 8.85333 10.5734 9.12 10.94C9.65 11.69 10.45 12.41 11.02 12.98C11.59 13.55 12.31 14.35 13.05 14.88C13.4233 15.1467 13.7233 15.2967 13.95 15.33C14.1233 15.3634 14.26 15.3234 14.36 15.21C14.59 14.98 14.67 14.86 14.89 14.63C15.06 14.44 15.31 14.2 15.69 14.08C16.06 13.96 16.45 14 16.84 14.12C17.2133 14.24 17.67 14.4534 18.21 14.76L20.97 16.28L21 16.29L21.02 16.31C21.38 16.54 21.66 16.88 21.73 17.33C21.8 17.75 21.66 18.13 21.51 18.41C21.22 18.95 20.68 19.48 20.29 19.87C19.2076 21.018 17.7167 21.6934 16.14 21.75C14.5023 21.7013 12.9157 21.1689 11.58 20.22C10.0208 19.2133 8.5786 18.036 7.28 16.71C5.9581 15.414 4.78423 13.9752 3.78 12.42C2.83111 11.0844 2.29875 9.49772 2.25 7.86003C2.30926 6.28683 2.98446 4.79994 4.13 3.72003C4.53 3.32003 5.05 2.78003 5.59 2.49003C5.91558 2.29879 6.29556 2.22139 6.67 2.27003ZM6.3 3.80003C6 3.96003 5.64 4.32003 5.19 4.77003C4.75532 5.16456 4.40398 5.64208 4.15667 6.17448C3.90936 6.70688 3.77109 7.28338 3.75 7.87003C3.72333 8.98336 4.15333 10.2267 5.04 11.6C5.88667 12.9134 6.83667 14.1067 7.89 15.18L8.34 15.64H8.35C9.56662 16.8932 10.922 18.0037 12.39 18.95C13.4839 19.7289 14.7787 20.1767 16.12 20.24C16.7067 20.2189 17.2832 20.0807 17.8155 19.8334C18.3479 19.5861 18.8255 19.2347 19.22 18.8C19.6126 18.4404 19.9556 18.0301 20.24 17.58L20.21 17.56L17.48 16.06C17.1291 15.8551 16.7611 15.6811 16.38 15.54C16.3019 15.517 16.2213 15.5035 16.14 15.5L15.99 15.64C15.89 15.74 15.65 16.04 15.42 16.26C14.92 16.76 14.29 16.9 13.7 16.8C13.1496 16.6765 12.6316 16.4379 12.18 16.1C11.3 15.46 10.44 14.52 9.96 14.03C9.48 13.54 8.53 12.7 7.9 11.82C7.56211 11.3684 7.32355 10.8504 7.2 10.3C7.09 9.70003 7.23 9.08003 7.73 8.58003C7.96 8.35003 8.25 8.11003 8.35 8.01003L8.49 7.86003C8.49 7.88003 8.52 7.84003 8.45 7.61003C8.31377 7.23013 8.13955 6.86495 7.93 6.52003L6.43 3.79003L6.41 3.76003L6.3 3.80003Z" fill="var(--fill-0, white)"/>
</g>
</svg>
