<svg preserveAspectRatio="none" width="100%" height="100%" overflow="visible" style="display: block;" viewBox="0 0 62.3253 36" fill="none" xmlns="http://www.w3.org/2000/svg">
<g id="Group">
<path id="Vector" d="M49.7705 0.296601C47.9097 5.0604 46.0488 9.82525 44.188 14.5911C43.9196 15.2793 43.6502 15.9674 43.3819 16.6545L41.8938 20.465L39.9818 25.3614C39.0065 27.8571 38.0322 30.3539 37.0569 32.8517C36.9525 33.0229 35.0823 35.9781 31.5047 35.9979C31.4912 36 31.4786 36 31.4671 36C27.8635 36 25.9692 33.0062 25.8753 32.8517L22.4105 24.6127L20.4985 20.0671L15.1217 7.28253C15.4528 7.25121 15.8882 7.22092 16.4051 7.22092C17.8691 7.22092 19.9868 7.45588 22.2361 8.53979C24.7339 9.74171 26.176 11.4062 26.5801 11.8928C27.9011 13.4895 27.9209 14.353 29.6867 18.7743C31.9893 24.5343 33.0377 25.7655 34.3941 26.1842C34.7669 26.2981 35.1314 26.3419 35.4728 26.3419C35.9772 26.3419 36.4304 26.2458 36.7792 26.1445C32.9907 22.9095 32.5239 19.9439 32.4487 18.7388C32.3443 17.0555 32.8466 16.2473 36.1568 9.60491C39.2373 3.41782 39.5453 2.62107 40.8318 1.69483C41.6087 1.13512 43.4696 3.8147e-05 46.7328 3.8147e-05C47.6361 3.8147e-05 48.6469 0.0867096 49.7726 0.297645L49.7705 0.296601Z" fill="var(--fill-0, #FE641F)"/>
<path id="Vector_2" d="M0.956662 20.0368H0.955617C0.427923 20.0368 0.000142366 20.4646 0.000142366 20.9923V25.5545C0.000142366 26.0822 0.427923 26.51 0.955617 26.51H0.956662C1.48436 26.51 1.91214 26.0822 1.91214 25.5545V20.9923C1.91214 20.4646 1.48436 20.0368 0.956662 20.0368Z" fill="var(--fill-0, #0C335C)"/>
<path id="Vector_3" d="M4.44123 18.954H4.44019C3.91249 18.954 3.48471 19.3817 3.48471 19.9094V26.6364C3.48471 27.1641 3.91249 27.5919 4.44019 27.5919H4.44123C4.96893 27.5919 5.39671 27.1641 5.39671 26.6364V19.9094C5.39671 19.3817 4.96893 18.954 4.44123 18.954Z" fill="var(--fill-0, #0C335C)"/>
<path id="Vector_4" d="M7.9258 16.7611H7.92476C7.39706 16.7611 6.96928 17.1888 6.96928 17.7165V28.8293C6.96928 29.357 7.39706 29.7848 7.92476 29.7848H7.9258C8.4535 29.7848 8.88128 29.357 8.88128 28.8293V17.7165C8.88128 17.1888 8.4535 16.7611 7.9258 16.7611Z" fill="var(--fill-0, #0C335C)"/>
<path id="Vector_5" d="M11.4115 13.5051H11.4104C10.8827 13.5051 10.455 13.9329 10.455 14.4606V32.0842C10.455 32.6118 10.8827 33.0396 11.4104 33.0396H11.4115C11.9392 33.0396 12.367 32.6118 12.367 32.0842V14.4606C12.367 13.9329 11.9392 13.5051 11.4115 13.5051Z" fill="var(--fill-0, #0C335C)"/>
<path id="Vector_6" d="M19.3373 18.5436V31.0107C19.3373 31.537 18.9091 31.9662 18.3818 31.9662C17.8545 31.9662 17.4263 31.537 17.4263 31.0107V18.5436C17.4263 18.0841 17.7511 17.6998 18.1834 17.609C18.2481 17.5954 18.3139 17.587 18.3828 17.587C18.5624 17.587 18.7295 17.6361 18.8715 17.7207V17.7228C18.9405 17.7625 19.0031 17.8116 19.0585 17.8669C19.2318 18.0402 19.3383 18.2794 19.3383 18.5425L19.3373 18.5436Z" fill="var(--fill-0, #0C335C)"/>
<path id="Vector_7" d="M22.4105 26.1383V28.8293C22.4105 29.3577 21.9823 29.7847 21.455 29.7847C20.9277 29.7847 20.4995 29.3566 20.4995 28.8293V21.5938L22.4115 26.1393L22.4105 26.1383Z" fill="var(--fill-0, #0C335C)"/>
<path id="Vector_8" d="M14.8962 11.5472H14.8952C14.3675 11.5472 13.9397 11.975 13.9397 12.5027V34.0431C13.9397 34.5708 14.3675 34.9986 14.8952 34.9986H14.8962C15.4239 34.9986 15.8517 34.5708 15.8517 34.0431V12.5027C15.8517 11.975 15.4239 11.5472 14.8962 11.5472Z" fill="var(--fill-0, #0C335C)"/>
<path id="Vector_9" d="M61.3688 26.509H61.3698C61.8975 26.509 62.3253 26.0812 62.3253 25.5535V20.9912C62.3253 20.4635 61.8975 20.0358 61.3698 20.0358H61.3688C60.8411 20.0358 60.4133 20.4635 60.4133 20.9912V25.5535C60.4133 26.0812 60.8411 26.509 61.3688 26.509Z" fill="var(--fill-0, #0C335C)"/>
<path id="Vector_10" d="M57.8842 27.5919H57.8852C58.4129 27.5919 58.8407 27.1641 58.8407 26.6364V19.9094C58.8407 19.3817 58.4129 18.9539 57.8852 18.9539H57.8842C57.3565 18.9539 56.9287 19.3817 56.9287 19.9094V26.6364C56.9287 27.1641 57.3565 27.5919 57.8842 27.5919Z" fill="var(--fill-0, #0C335C)"/>
<path id="Vector_11" d="M54.3985 29.7847H54.3996C54.9273 29.7847 55.355 29.357 55.355 28.8293V17.7165C55.355 17.1888 54.9273 16.761 54.3996 16.761H54.3985C53.8708 16.761 53.443 17.1888 53.443 17.7165V28.8293C53.443 29.357 53.8708 29.7847 54.3985 29.7847Z" fill="var(--fill-0, #0C335C)"/>
<path id="Vector_12" d="M50.9139 33.0407H50.915C51.4427 33.0407 51.8705 32.6129 51.8705 32.0852V14.4617C51.8705 13.934 51.4427 13.5062 50.915 13.5062H50.9139C50.3863 13.5062 49.9585 13.934 49.9585 14.4617V32.0852C49.9585 32.6129 50.3863 33.0407 50.9139 33.0407Z" fill="var(--fill-0, #0C335C)"/>
<path id="Vector_13" d="M45.2948 15.5351V31.0733C45.2948 31.6017 44.8667 32.0288 44.3393 32.0288C44.0752 32.0288 43.8371 31.9223 43.6637 31.749C43.4904 31.5756 43.3839 31.3365 43.3839 31.0733V18.2825L44.7873 14.6893C44.9868 14.7958 45.1444 14.9712 45.229 15.1822C45.2729 15.2908 45.2959 15.4109 45.2959 15.5351H45.2948Z" fill="var(--fill-0, #0C335C)"/>
<path id="Vector_14" d="M41.8949 22.0908V28.8282C41.8949 29.3566 41.4668 29.7837 40.9394 29.7837C40.6752 29.7837 40.4371 29.6772 40.2638 29.5038C40.0905 29.3305 39.9839 29.0914 39.9839 28.8282V26.9872L41.8959 22.0908H41.8949Z" fill="var(--fill-0, #0C335C)"/>
<path id="Vector_15" d="M47.4292 34.9986H47.4303C47.958 34.9986 48.3857 34.5708 48.3857 34.0431V12.5027C48.3857 11.975 47.958 11.5472 47.4303 11.5472H47.4292C46.9015 11.5472 46.4737 11.975 46.4737 12.5027V34.0431C46.4737 34.5708 46.9015 34.9986 47.4292 34.9986Z" fill="var(--fill-0, #0C335C)"/>
</g>
</svg>
