<svg preserveAspectRatio="none" width="100%" height="100%" overflow="visible" style="display: block;" viewBox="0 0 14 14" fill="none" xmlns="http://www.w3.org/2000/svg">
<g id="ChartBar-Regular">
<path id="Vector" fill-rule="evenodd" clip-rule="evenodd" d="M4.71333 2.47918C5.02275 2.47918 5.3195 2.60209 5.53829 2.82088C5.75708 3.03968 5.88 3.33642 5.88 3.64584V6.60334C5.97511 6.57747 6.07311 6.56375 6.17167 6.56251H7.82833C7.92689 6.56375 8.02489 6.57747 8.12 6.60334V5.68751C8.12 5.04584 8.645 4.52084 9.28667 4.52084H10.9375C11.2469 4.52084 11.5437 4.64376 11.7625 4.86255C11.9812 5.08134 12.1042 5.37809 12.1042 5.68751V10.6458H12.25C12.366 10.6458 12.4773 10.6919 12.5594 10.774C12.6414 10.856 12.6875 10.9673 12.6875 11.0833C12.6875 11.1994 12.6414 11.3107 12.5594 11.3927C12.4773 11.4747 12.366 11.5208 12.25 11.5208H1.75C1.63397 11.5208 1.52269 11.4747 1.44064 11.3927C1.35859 11.3107 1.3125 11.1994 1.3125 11.0833C1.3125 10.9673 1.35859 10.856 1.44064 10.774C1.52269 10.6919 1.63397 10.6458 1.75 10.6458H1.89583V3.64584C1.89583 3.00418 2.42083 2.47918 3.0625 2.47918H4.71333ZM3.0625 3.35418C2.98515 3.35418 2.91096 3.3849 2.85626 3.4396C2.80156 3.4943 2.77083 3.56849 2.77083 3.64584V10.6458H5.005V3.64584C5.005 3.56849 4.97427 3.4943 4.91957 3.4396C4.86487 3.3849 4.79069 3.35418 4.71333 3.35418H3.0625ZM6.17167 7.43751C6.09431 7.43751 6.02012 7.46824 5.96543 7.52294C5.91073 7.57763 5.88 7.65182 5.88 7.72918V10.6458H8.12V7.72918C8.12 7.65182 8.08927 7.57763 8.03457 7.52294C7.97987 7.46824 7.90569 7.43751 7.82833 7.43751H6.17167ZM9.28667 5.39584C9.20931 5.39584 9.13512 5.42657 9.08043 5.48127C9.02573 5.53597 8.995 5.61015 8.995 5.68751V10.6458H11.2292V5.68751C11.2292 5.61015 11.1984 5.53597 11.1437 5.48127C11.089 5.42657 11.0149 5.39584 10.9375 5.39584H9.28667Z" fill="var(--fill-0, #64748B)"/>
</g>
</svg>
