<svg preserveAspectRatio="none" width="100%" height="100%" overflow="visible" style="display: block;" viewBox="0 0 12 12" fill="none" xmlns="http://www.w3.org/2000/svg">
<g id="Play-Fill">
<path id="Vector" d="M3.07 0.955008C3.405 0.920008 3.73 1.03001 4.05 1.17501C4.37 1.32834 4.77 1.54501 5.25 1.82501L8.75 3.85001C9.235 4.13001 9.625 4.35001 9.915 4.55501C10.2 4.75501 10.455 4.98501 10.595 5.29501C10.795 5.74501 10.795 6.26501 10.595 6.71501C10.4343 7.0137 10.2003 7.26663 9.915 7.45001C9.625 7.65001 9.23666 7.88667 8.75 8.16001L5.245 10.175C4.765 10.4583 4.365 10.675 4.045 10.825C3.725 10.975 3.4 11.085 3.065 11.05C2.82087 11.0249 2.58475 10.9487 2.37198 10.8264C2.15922 10.704 1.97456 10.5383 1.83 10.34C1.64985 10.0508 1.54659 9.72034 1.53 9.38001C1.5 9.02667 1.49 8.57334 1.5 8.02001V3.98001C1.49333 3.43001 1.50333 2.97834 1.53 2.62501C1.565 2.27501 1.63 1.94001 1.835 1.66501C1.97907 1.46576 2.16351 1.2991 2.3763 1.1759C2.5891 1.05271 2.82546 0.975737 3.07 0.950008" fill="var(--fill-0, #1DB013)"/>
</g>
</svg>
