<svg preserveAspectRatio="none" width="100%" height="100%" overflow="visible" style="display: block;" viewBox="0 0 14 14" fill="none" xmlns="http://www.w3.org/2000/svg">
<g id="Settings-Regular">
<path id="Vector" fill-rule="evenodd" clip-rule="evenodd" d="M7 4.8125C7.58016 4.8125 8.13656 5.04297 8.5468 5.4532C8.95703 5.86344 9.1875 6.41984 9.1875 7C9.1875 7.58016 8.95703 8.13656 8.5468 8.5468C8.13656 8.95703 7.58016 9.1875 7 9.1875C6.41984 9.1875 5.86344 8.95703 5.4532 8.5468C5.04297 8.13656 4.8125 7.58016 4.8125 7C4.8125 6.41984 5.04297 5.86344 5.4532 5.4532C5.86344 5.04297 6.41984 4.8125 7 4.8125ZM7 5.6875C6.6519 5.6875 6.31806 5.82578 6.07192 6.07192C5.82578 6.31806 5.6875 6.6519 5.6875 7C5.6875 7.3481 5.82578 7.68194 6.07192 7.92808C6.31806 8.17422 6.6519 8.3125 7 8.3125C7.3481 8.3125 7.68194 8.17422 7.92808 7.92808C8.17422 7.68194 8.3125 7.3481 8.3125 7C8.3125 6.6519 8.17422 6.31806 7.92808 6.07192C7.68194 5.82578 7.3481 5.6875 7 5.6875Z" fill="var(--fill-0, #64748B)"/>
<path id="Vector_2" fill-rule="evenodd" clip-rule="evenodd" d="M8.52837 1.53416C8.85504 1.19583 9.36837 1.12583 9.77087 1.35916L10.5 1.77916C10.9084 2.01249 11.1009 2.49083 10.9667 2.94583L10.9084 3.17333C10.6109 4.19999 11.2292 5.27333 12.2675 5.52999L12.5009 5.58833C12.95 5.70499 13.2709 6.11333 13.2709 6.57999V7.41999C13.2709 7.88666 12.95 8.29499 12.495 8.41166L12.2675 8.46999C12.021 8.53149 11.7894 8.6419 11.5865 8.79466C11.3835 8.94742 11.2133 9.13941 11.0859 9.35924C10.9586 9.57907 10.8768 9.82225 10.8453 10.0743C10.8137 10.3264 10.8332 10.5823 10.9025 10.8267L10.9725 11.06C11.1009 11.5033 10.9025 11.9875 10.5 12.2208L9.77087 12.6408C9.36254 12.8742 8.85504 12.8042 8.52837 12.4658L8.36504 12.2908C8.18819 12.1073 7.97616 11.9614 7.74163 11.8617C7.5071 11.762 7.25487 11.7107 7.00004 11.7107C6.7452 11.7107 6.49298 11.762 6.25845 11.8617C6.02391 11.9614 5.81189 12.1073 5.63504 12.2908L5.4717 12.4658C5.14504 12.8042 4.6317 12.8742 4.2292 12.6408L3.50004 12.2208C3.30329 12.1063 3.15049 11.9292 3.06593 11.7178C2.98138 11.5064 2.96991 11.2728 3.03337 11.0542L3.0917 10.8267C3.3892 9.79999 2.77087 8.72666 1.73254 8.46999L1.4992 8.41166C1.05004 8.29499 0.729202 7.88666 0.729202 7.41999V6.57999C0.729202 6.11333 1.05004 5.70499 1.50504 5.58833L1.73837 5.52999C1.98381 5.46722 2.21417 5.35588 2.41585 5.20257C2.61754 5.04926 2.78645 4.85708 2.9126 4.63739C3.03876 4.4177 3.11961 4.17496 3.15037 3.92349C3.18113 3.67203 3.16118 3.41695 3.0917 3.17333L3.02754 2.93999C2.89337 2.49083 3.08587 2.01249 3.4942 1.77333L4.22337 1.36499C4.6317 1.12583 5.1392 1.19583 5.46587 1.53416L5.6292 1.70916C5.80605 1.89264 6.01808 2.03859 6.25261 2.13827C6.48714 2.23796 6.73937 2.28933 6.9942 2.28933C7.24904 2.28933 7.50126 2.23796 7.73579 2.13827C7.97032 2.03859 8.18235 1.89264 8.3592 1.70916L8.52837 1.53416ZM9.33337 2.11749C9.30566 2.10172 9.27354 2.09546 9.24194 2.09967C9.21033 2.10388 9.18098 2.11834 9.15837 2.14083L8.9892 2.31583C8.73081 2.58309 8.42129 2.79563 8.07905 2.94079C7.73681 3.08595 7.36887 3.16075 6.99712 3.16075C6.62537 3.16075 6.25743 3.08595 5.91519 2.94079C5.57295 2.79563 5.26342 2.58309 5.00504 2.31583L4.8417 2.14083C4.8191 2.11834 4.78974 2.10388 4.75813 2.09967C4.72653 2.09546 4.69441 2.10172 4.6667 2.11749L3.93754 2.53749C3.91341 2.55666 3.89477 2.58186 3.8835 2.61054C3.87223 2.63922 3.86874 2.67036 3.87337 2.70083L3.9317 2.93416C4.03276 3.29041 4.06138 3.6633 4.01588 4.0308C3.97037 4.3983 3.85167 4.75295 3.66678 5.07379C3.48188 5.39464 3.23455 5.67516 2.9394 5.8988C2.64425 6.12243 2.30727 6.28464 1.94837 6.37583L1.71504 6.43416C1.68268 6.44215 1.65403 6.46097 1.63387 6.48751C1.6137 6.51404 1.60323 6.54668 1.6042 6.57999V7.41999C1.60809 7.48999 1.64504 7.53666 1.71504 7.55999L1.94837 7.61833C2.30856 7.7094 2.64676 7.87198 2.94285 8.0964C3.23894 8.32082 3.48687 8.60249 3.67191 8.92466C3.85694 9.24684 3.97529 9.60293 4.01992 9.97177C4.06455 10.3406 4.03455 10.7147 3.9317 11.0717L3.87337 11.2992C3.85781 11.3653 3.8792 11.4197 3.93754 11.4625L4.6667 11.8825C4.73281 11.9175 4.79115 11.9097 4.8417 11.8592L5.00504 11.6842C5.26342 11.4169 5.57295 11.2044 5.91519 11.0592C6.25743 10.914 6.62537 10.8392 6.99712 10.8392C7.36887 10.8392 7.73681 10.914 8.07905 11.0592C8.42129 11.2044 8.73081 11.4169 8.9892 11.6842L9.15837 11.8592C9.20892 11.9097 9.26726 11.9175 9.33337 11.8825L10.0625 11.4625C10.1209 11.4236 10.1423 11.3692 10.1267 11.2992L10.0684 11.0658C9.96642 10.7092 9.93711 10.3357 9.98218 9.96756C10.0272 9.59939 10.1458 9.24402 10.3307 8.92251C10.5157 8.60101 10.7633 8.31991 11.0589 8.09588C11.3546 7.87185 11.6922 7.70946 12.0517 7.61833L12.285 7.55999C12.3164 7.55224 12.3443 7.53428 12.3644 7.50894C12.3844 7.4836 12.3955 7.45231 12.3959 7.41999V6.57999C12.3955 6.54768 12.3844 6.51639 12.3644 6.49105C12.3443 6.46571 12.3164 6.44775 12.285 6.43999L12.0517 6.38166C11.6922 6.29053 11.3546 6.12814 11.0589 5.90411C10.7633 5.68008 10.5157 5.39898 10.3307 5.07748C10.1458 4.75597 10.0272 4.4006 9.98218 4.03243C9.93711 3.66426 9.96642 3.29079 10.0684 2.93416L10.1267 2.70083C10.1313 2.67036 10.1278 2.63922 10.1166 2.61054C10.1053 2.58186 10.0867 2.55666 10.0625 2.53749L9.33337 2.11749Z" fill="var(--fill-0, #64748B)"/>
</g>
</svg>
