<svg preserveAspectRatio="none" width="100%" height="100%" overflow="visible" style="display: block;" viewBox="0 0 36 36" fill="none" xmlns="http://www.w3.org/2000/svg">
<g id="Group 1">
<rect x="0.5" y="0.5" width="35" height="35" rx="17.5" stroke="url(#paint0_linear_38_330)"/>
<path id="Vector" fill-rule="evenodd" clip-rule="evenodd" d="M17.9995 12.3178C20.1928 12.3178 21.937 14.1845 21.937 16.4303V16.652C21.937 17.2586 22.112 17.8478 22.4503 18.3553L22.987 19.1545C23.1488 19.3962 23.2419 19.6773 23.2562 19.9678C23.2706 20.2583 23.2057 20.5473 23.0685 20.8038C22.9312 21.0602 22.7269 21.2746 22.4772 21.4238C22.2276 21.5731 21.942 21.6517 21.6511 21.6511H20.4378C20.333 22.2214 20.0317 22.7368 19.5862 23.1079C19.1407 23.479 18.5793 23.6822 17.9995 23.6822C17.4197 23.6822 16.8582 23.479 16.4128 23.1079C15.9673 22.7368 15.6659 22.2214 15.5611 21.6511H14.3478C13.0645 21.6511 12.3061 20.222 13.012 19.1545L13.5486 18.3553C13.8811 17.8478 14.062 17.2586 14.062 16.652V16.4303C14.062 14.1786 15.8061 12.3178 17.9995 12.3178ZM16.4595 21.6511C16.5567 21.9843 16.7593 22.277 17.037 22.4853C17.3147 22.6936 17.6524 22.8061 17.9995 22.8061C18.3466 22.8061 18.6843 22.6936 18.962 22.4853C19.2397 22.277 19.4423 21.9843 19.5395 21.6511H16.4595ZM17.9995 13.1928C17.5858 13.2041 17.1783 13.2969 16.8005 13.4657C16.4226 13.6346 16.0818 13.8763 15.7974 14.1769C15.5129 14.4776 15.2906 14.8314 15.1429 15.218C14.9953 15.6047 14.9253 16.0166 14.937 16.4303V16.652C14.937 17.4336 14.7036 18.192 14.2778 18.8395L13.7411 19.6386C13.4145 20.1228 13.7645 20.7703 14.3478 20.7703H21.6511C22.2345 20.7703 22.5845 20.1228 22.2578 19.6386L21.7211 18.8336C21.2916 18.1849 21.0624 17.4242 21.062 16.6461V16.4303C21.0736 16.0166 21.0036 15.6047 20.856 15.218C20.7084 14.8314 20.486 14.4776 20.2016 14.1769C19.9172 13.8763 19.5763 13.6346 19.1985 13.4657C18.8206 13.2969 18.4132 13.2041 17.9995 13.1928Z" fill="var(--fill-0, #1A1A1A)"/>
</g>
<defs>
<linearGradient id="paint0_linear_38_330" x1="0" y1="0" x2="38.7887" y2="3.30886" gradientUnits="userSpaceOnUse">
<stop stop-color="#111111" stop-opacity="0.05"/>
<stop offset="1" stop-color="#111111" stop-opacity="0.1"/>
</linearGradient>
</defs>
</svg>
