<svg preserveAspectRatio="none" width="100%" height="100%" overflow="visible" style="display: block;" viewBox="0 0 14 14" fill="none" xmlns="http://www.w3.org/2000/svg">
<g id="ContactBook-Regular">
<path id="Vector" d="M7.87505 4.66667C8.17012 4.66673 8.45824 4.75629 8.70134 4.92353C8.94444 5.09078 9.1311 5.32783 9.23664 5.60338C9.34218 5.87893 9.36166 6.18002 9.29248 6.46687C9.22331 6.75372 9.06875 7.01285 8.84922 7.21001C9.30422 7.42001 9.67755 7.77001 9.87005 8.23667C9.90636 8.32505 9.9204 8.42099 9.91095 8.51606C9.9015 8.61113 9.86884 8.70243 9.81584 8.78192C9.76284 8.86142 9.69113 8.92668 9.60701 8.97197C9.52288 9.01726 9.42892 9.0412 9.33338 9.04167H6.41672C6.32118 9.0412 6.22721 9.01726 6.14309 8.97197C6.05897 8.92668 5.98726 8.86142 5.93426 8.78192C5.88126 8.70243 5.8486 8.61113 5.83915 8.51606C5.8297 8.42099 5.84374 8.32505 5.88005 8.23667C6.07255 7.77001 6.44588 7.42001 6.90088 7.21001C6.67817 7.01423 6.52072 6.75498 6.44968 6.46709C6.37864 6.1792 6.39741 5.87646 6.50347 5.59955C6.60953 5.32265 6.79781 5.08483 7.043 4.91807C7.28818 4.7513 7.57854 4.66358 7.87505 4.66667Z" fill="var(--fill-0, #64748B)"/>
<path id="Vector_2" fill-rule="evenodd" clip-rule="evenodd" d="M8.86663 1.89584C9.34885 1.89195 9.74357 1.89972 10.0508 1.91917C10.3716 1.94834 10.6516 2.00084 10.9083 2.135C11.3166 2.345 11.655 2.6775 11.865 3.09167C11.9991 3.34834 12.0516 3.62834 12.0808 3.94917C12.1002 4.26028 12.108 4.655 12.1041 5.13334V8.86667C12.108 9.34889 12.1002 9.74361 12.0808 10.0508C12.0642 10.3478 11.9909 10.6389 11.865 10.9083C11.655 11.3167 11.3225 11.655 10.9083 11.865C10.6516 11.9992 10.3716 12.0517 10.0508 12.0808C9.73969 12.1003 9.34496 12.1081 8.86663 12.1042H6.29996C5.81774 12.1081 5.42302 12.1003 5.1158 12.0808C4.81882 12.0642 4.52776 11.9909 4.2583 11.865C3.84751 11.6536 3.51303 11.3191 3.30163 10.9083C3.17569 10.6389 3.10243 10.3478 3.0858 10.0508L3.07413 9.77084H2.3333C2.21727 9.77084 2.10599 9.72474 2.02394 9.6427C1.94189 9.56065 1.8958 9.44937 1.8958 9.33334C1.8958 9.2173 1.94189 9.10602 2.02394 9.02398C2.10599 8.94193 2.21727 8.89584 2.3333 8.89584H3.06246V7.4375H2.3333C2.21727 7.4375 2.10599 7.39141 2.02394 7.30936C1.94189 7.22731 1.8958 7.11603 1.8958 7C1.8958 6.88397 1.94189 6.77269 2.02394 6.69064C2.10599 6.6086 2.21727 6.5625 2.3333 6.5625H3.06246V5.10417H2.3333C2.21727 5.10417 2.10599 5.05807 2.02394 4.97603C1.94189 4.89398 1.8958 4.7827 1.8958 4.66667C1.8958 4.55064 1.94189 4.43936 2.02394 4.35731C2.10599 4.27526 2.21727 4.22917 2.3333 4.22917H3.07413L3.0858 3.94917C3.11496 3.62834 3.16746 3.34834 3.30163 3.09167C3.51163 2.68334 3.84413 2.345 4.2583 2.135C4.51496 2.00084 4.79496 1.94834 5.1158 1.91917C5.42691 1.89972 5.82163 1.89195 6.29996 1.89584H8.86663ZM6.29996 2.77084C5.80413 2.77084 5.45413 2.77084 5.19163 2.79417C4.9233 2.8175 4.77163 2.8525 4.65496 2.91084C4.40219 3.04695 4.21163 3.23945 4.0833 3.48834C4.02496 3.605 3.98413 3.75667 3.9608 4.01917L3.94913 4.22917H4.66663C4.78266 4.22917 4.89394 4.27526 4.97599 4.35731C5.05804 4.43936 5.10413 4.55064 5.10413 4.66667C5.10413 4.7827 5.05804 4.89398 4.97599 4.97603C4.89394 5.05807 4.78266 5.10417 4.66663 5.10417H3.93746V6.5625H4.66663C4.78266 6.5625 4.89394 6.6086 4.97599 6.69064C5.05804 6.77269 5.10413 6.88397 5.10413 7C5.10413 7.11603 5.05804 7.22731 4.97599 7.30936C4.89394 7.39141 4.78266 7.4375 4.66663 7.4375H3.93746V8.89584H4.66663C4.78266 8.89584 4.89394 8.94193 4.97599 9.02398C5.05804 9.10602 5.10413 9.2173 5.10413 9.33334C5.10413 9.44937 5.05804 9.56065 4.97599 9.6427C4.89394 9.72474 4.78266 9.77084 4.66663 9.77084H3.94913C3.94913 9.84861 3.95302 9.91861 3.9608 9.98084C3.98413 10.2433 4.01913 10.395 4.07746 10.5117C4.21358 10.7644 4.40608 10.955 4.65496 11.0833C4.77163 11.1417 4.9233 11.1825 5.1858 11.2058C5.45413 11.2292 5.80413 11.2292 6.29996 11.2292H8.86663C9.36246 11.2292 9.71246 11.2292 9.97496 11.2058C10.2433 11.1825 10.395 11.1475 10.5116 11.0892C10.7644 10.9569 10.955 10.7644 11.0833 10.5117C11.1416 10.395 11.1825 10.2433 11.2058 9.98084C11.2291 9.7125 11.2291 9.3625 11.2291 8.86667V5.13334C11.2291 4.6375 11.2291 4.2875 11.2058 4.025C11.2102 3.83938 11.1702 3.65539 11.0891 3.48834C10.9604 3.24267 10.7586 3.04295 10.5116 2.91667C10.3468 2.83452 10.1649 2.79254 9.9808 2.79417C9.71246 2.77084 9.36246 2.77084 8.86663 2.77084H6.29996Z" fill="var(--fill-0, #64748B)"/>
</g>
</svg>
