<svg preserveAspectRatio="none" width="100%" height="100%" overflow="visible" style="display: block;" viewBox="0 0 12 12" fill="none" xmlns="http://www.w3.org/2000/svg">
<g id="TextSparkle-Fill">
<path id="Vector" d="M8.195 5.13C8.21797 5.06759 8.25952 5.01374 8.31406 4.97569C8.3686 4.93765 8.4335 4.91725 8.5 4.91725C8.5665 4.91725 8.6314 4.93765 8.68594 4.97569C8.74048 5.01374 8.78203 5.06759 8.805 5.13L8.93 5.475C9.0589 5.84502 9.26975 6.18112 9.54682 6.45818C9.82388 6.73525 10.16 6.9461 10.53 7.075L10.87 7.195C10.9324 7.21797 10.9863 7.25952 11.0243 7.31406C11.0624 7.3686 11.0828 7.4335 11.0828 7.5C11.0828 7.5665 11.0624 7.6314 11.0243 7.68594C10.9863 7.74048 10.9324 7.78203 10.87 7.805L10.525 7.93C10.155 8.05889 9.81888 8.26975 9.54182 8.54682C9.26475 8.82388 9.0539 9.15998 8.925 9.53L8.805 9.87C8.78203 9.93241 8.74048 9.98626 8.68594 10.0243C8.6314 10.0624 8.5665 10.0828 8.5 10.0828C8.4335 10.0828 8.3686 10.0624 8.31406 10.0243C8.25952 9.98626 8.21797 9.93241 8.195 9.87L8.07 9.525C7.9411 9.15498 7.73025 8.81888 7.45318 8.54182C7.17612 8.26475 6.84002 8.0539 6.47 7.925L6.13 7.805C6.06759 7.78203 6.01374 7.74048 5.97569 7.68594C5.93765 7.6314 5.91725 7.5665 5.91725 7.5C5.91725 7.4335 5.93765 7.3686 5.97569 7.31406C6.01374 7.25952 6.06759 7.21797 6.13 7.195L6.475 7.07C6.84502 6.94111 7.18112 6.73025 7.45818 6.45318C7.73525 6.17612 7.9461 5.84002 8.075 5.47L8.195 5.13ZM4 8.25C4.19891 8.25 4.38968 8.32902 4.53033 8.46967C4.67098 8.61032 4.75 8.80109 4.75 9C4.75 9.19891 4.67098 9.38968 4.53033 9.53033C4.38968 9.67098 4.19891 9.75 4 9.75H1.5C1.30109 9.75 1.11032 9.67098 0.96967 9.53033C0.829018 9.38968 0.75 9.19891 0.75 9C0.75 8.80109 0.829018 8.61032 0.96967 8.46967C1.11032 8.32902 1.30109 8.25 1.5 8.25H4ZM4 5.25C4.19891 5.25 4.38968 5.32902 4.53033 5.46967C4.67098 5.61032 4.75 5.80109 4.75 6C4.75 6.19891 4.67098 6.38968 4.53033 6.53033C4.38968 6.67098 4.19891 6.75 4 6.75H1.5C1.30109 6.75 1.11032 6.67098 0.96967 6.53033C0.829018 6.38968 0.75 6.19891 0.75 6C0.75 5.80109 0.829018 5.61032 0.96967 5.46967C1.11032 5.32902 1.30109 5.25 1.5 5.25H4ZM10.5 2.25C10.6989 2.25 10.8897 2.32902 11.0303 2.46967C11.171 2.61032 11.25 2.80109 11.25 3C11.25 3.19891 11.171 3.38968 11.0303 3.53033C10.8897 3.67098 10.6989 3.75 10.5 3.75H1.5C1.30109 3.75 1.11032 3.67098 0.96967 3.53033C0.829018 3.38968 0.75 3.19891 0.75 3C0.75 2.80109 0.829018 2.61032 0.96967 2.46967C1.11032 2.32902 1.30109 2.25 1.5 2.25H10.5Z" fill="var(--fill-0, #FE641F)"/>
</g>
</svg>
