<svg preserveAspectRatio="none" width="100%" height="100%" overflow="visible" style="display: block;" viewBox="0 0 24 24" fill="none" xmlns="http://www.w3.org/2000/svg">
<g id="Clock3-Regular">
<path id="Vector" d="M12 6.25007C12.41 6.25007 12.75 6.59007 12.75 7.00007V11.2501H16C16.1989 11.2501 16.3897 11.3291 16.5303 11.4697C16.671 11.6104 16.75 11.8012 16.75 12.0001C16.75 12.199 16.671 12.3897 16.5303 12.5304C16.3897 12.6711 16.1989 12.7501 16 12.7501H12C11.8011 12.7501 11.6103 12.6711 11.4697 12.5304C11.329 12.3897 11.25 12.199 11.25 12.0001V7.00007C11.25 6.59007 11.59 6.25007 12 6.25007Z" fill="var(--fill-0, #111111)"/>
<path id="Vector_2" fill-rule="evenodd" clip-rule="evenodd" d="M12 2.25C14.5859 2.25 17.0658 3.27723 18.8943 5.10571C20.7228 6.93419 21.75 9.41414 21.75 12C21.75 14.5859 20.7228 17.0658 18.8943 18.8943C17.0658 20.7228 14.5859 21.75 12 21.75C9.41414 21.75 6.93419 20.7228 5.10571 18.8943C3.27723 17.0658 2.25 14.5859 2.25 12C2.25 9.41414 3.27723 6.93419 5.10571 5.10571C6.93419 3.27723 9.41414 2.25 12 2.25ZM12 3.75C9.81196 3.75 7.71354 4.61919 6.16637 6.16637C4.61919 7.71354 3.75 9.81196 3.75 12C3.75 14.188 4.61919 16.2865 6.16637 17.8336C7.71354 19.3808 9.81196 20.25 12 20.25C14.188 20.25 16.2865 19.3808 17.8336 17.8336C19.3808 16.2865 20.25 14.188 20.25 12C20.25 9.81196 19.3808 7.71354 17.8336 6.16637C16.2865 4.61919 14.188 3.75 12 3.75Z" fill="var(--fill-0, #111111)"/>
</g>
</svg>
