<svg preserveAspectRatio="none" width="100%" height="100%" overflow="visible" style="display: block;" viewBox="0 0 14 14" fill="none" xmlns="http://www.w3.org/2000/svg">
<g id="SignOut-Regular">
<path id="Vector" d="M5.95005 1.3125C6.43227 1.30861 6.82699 1.31639 7.13421 1.33583C7.45505 1.365 7.73505 1.4175 7.99171 1.55166C8.40005 1.76166 8.73838 2.09416 8.94838 2.50833C9.08255 2.765 9.13505 3.045 9.16421 3.36583C9.18366 3.67694 9.19144 4.07166 9.18755 4.55V4.66666C9.18755 4.7827 9.14145 4.89398 9.05941 4.97602C8.97736 5.05807 8.86608 5.10416 8.75005 5.10416C8.63401 5.10416 8.52273 5.05807 8.44069 4.97602C8.35864 4.89398 8.31255 4.7827 8.31255 4.66666V4.55C8.31255 4.05416 8.31255 3.70416 8.28921 3.44166C8.29358 3.25604 8.25359 3.07205 8.17255 2.905C8.04377 2.65933 7.84201 2.45961 7.59505 2.33333C7.43025 2.25118 7.24835 2.2092 7.06421 2.21083C6.79588 2.1875 6.44588 2.1875 5.95005 2.1875H3.96671C3.47088 2.1875 3.12088 2.1875 2.85838 2.21083C2.59005 2.23416 2.43838 2.26916 2.32171 2.3275C2.06894 2.46361 1.87838 2.65611 1.75005 2.905C1.69171 3.02166 1.65088 3.17333 1.62755 3.43583C1.60421 3.70416 1.60421 4.05416 1.60421 4.55V9.45C1.60421 9.94583 1.60421 10.2958 1.62755 10.5583C1.65088 10.8267 1.68588 10.9783 1.74421 11.095C1.87644 11.3478 2.06894 11.5383 2.32171 11.6667C2.43838 11.725 2.59005 11.7658 2.85255 11.7892C3.12088 11.8125 3.47088 11.8125 3.96671 11.8125H5.95005C6.44588 11.8125 6.79588 11.8125 7.05838 11.7892C7.32671 11.7658 7.47838 11.7308 7.59505 11.6725C7.84782 11.5403 8.03838 11.3478 8.16671 11.095C8.22505 10.9783 8.26588 10.8267 8.28921 10.5642C8.31255 10.2958 8.31255 9.94583 8.31255 9.45V9.33333C8.31255 9.2173 8.35864 9.10602 8.44069 9.02397C8.52273 8.94193 8.63401 8.89583 8.75005 8.89583C8.86608 8.89583 8.97736 8.94193 9.05941 9.02397C9.14145 9.10602 9.18755 9.2173 9.18755 9.33333V9.45C9.19144 9.93222 9.18366 10.3269 9.16421 10.6342C9.14758 10.9311 9.07432 11.2222 8.94838 11.4917C8.73838 11.9 8.40588 12.2383 7.99171 12.4483C7.73505 12.5825 7.45505 12.635 7.13421 12.6642C6.8231 12.6836 6.42838 12.6914 5.95005 12.6875H3.96671C3.48449 12.6914 3.08977 12.6836 2.78255 12.6642C2.48557 12.6475 2.19451 12.5743 1.92505 12.4483C1.51426 12.2369 1.17978 11.9025 0.96838 11.4917C0.842438 11.2222 0.769178 10.9311 0.752547 10.6342C0.733102 10.3231 0.725324 9.92833 0.729213 9.45V4.55C0.725324 4.06778 0.733102 3.67305 0.752547 3.36583C0.781713 3.045 0.834213 2.765 0.96838 2.50833C1.17838 2.1 1.51088 1.76166 1.92505 1.55166C2.18171 1.4175 2.46171 1.365 2.78255 1.33583C3.09366 1.31639 3.48838 1.30861 3.96671 1.3125H5.95005Z" fill="var(--fill-0, #64748B)"/>
<path id="Vector_2" d="M10.7741 4.64916C10.9491 4.47416 11.2233 4.47416 11.3925 4.64916L13.4341 6.69083C13.5161 6.77286 13.5621 6.88406 13.5621 7C13.5621 7.11594 13.5161 7.22713 13.4341 7.30916L11.3925 9.35083C11.3095 9.42811 11.1998 9.47018 11.0865 9.46818C10.9732 9.46618 10.865 9.42027 10.7849 9.34011C10.7047 9.25995 10.6588 9.15181 10.6568 9.03847C10.6548 8.92513 10.6969 8.81543 10.7741 8.7325L12.0691 7.4375H4.9583C4.84227 7.4375 4.73099 7.3914 4.64894 7.30936C4.56689 7.22731 4.5208 7.11603 4.5208 7C4.5208 6.88396 4.56689 6.77269 4.64894 6.69064C4.73099 6.60859 4.84227 6.5625 4.9583 6.5625H12.0691L10.7741 5.2675C10.6922 5.18547 10.6462 5.07427 10.6462 4.95833C10.6462 4.84239 10.6922 4.7312 10.7741 4.64916Z" fill="var(--fill-0, #64748B)"/>
</g>
</svg>
