<svg preserveAspectRatio="none" width="100%" height="100%" overflow="visible" style="display: block;" viewBox="0 0 14 14" fill="none" xmlns="http://www.w3.org/2000/svg">
<g id="CardHolder-Regular">
<path id="Vector" fill-rule="evenodd" clip-rule="evenodd" d="M9.9165 2.47914C10.3171 2.47525 10.6476 2.48303 10.9082 2.50248C11.1804 2.51803 11.4293 2.57831 11.6548 2.68331C12.0126 2.87775 12.2887 3.15386 12.4832 3.51164C12.5921 3.74109 12.6523 3.98998 12.664 4.25831C12.6834 4.51886 12.6912 4.84942 12.6873 5.24998V8.28331C12.6912 8.76553 12.6834 9.16025 12.664 9.46748C12.6474 9.76445 12.5741 10.0555 12.4482 10.325C12.2382 10.7333 11.9057 11.0716 11.4915 11.2816C11.2348 11.4158 10.9548 11.4683 10.634 11.4975C10.3229 11.5169 9.92817 11.5247 9.44983 11.5208H4.54983C4.06761 11.5247 3.67289 11.5169 3.36567 11.4975C3.06869 11.4808 2.77763 11.4076 2.50817 11.2816C2.09738 11.0702 1.7629 10.7358 1.5515 10.325C1.42556 10.0555 1.3523 9.76445 1.33567 9.46748C1.31622 9.15636 1.30844 8.76164 1.31233 8.28331V5.24998C1.30844 4.84942 1.31622 4.51886 1.33567 4.25831C1.34733 3.98609 1.40761 3.7372 1.5165 3.51164C1.70317 3.16164 1.989 2.86998 2.34483 2.68331C2.57428 2.57442 2.82317 2.51414 3.0915 2.50248C3.35206 2.48303 3.68261 2.47525 4.08317 2.47914H9.9165ZM2.18733 8.28331C2.18733 8.77914 2.18733 9.12914 2.21067 9.39164C2.234 9.65998 2.269 9.81164 2.32733 9.92831C2.46344 10.1811 2.65594 10.3716 2.90483 10.5C3.0215 10.5583 3.17317 10.5991 3.43567 10.6225C3.704 10.6458 4.054 10.6458 4.54983 10.6458H9.44983C9.94567 10.6458 10.2957 10.6458 10.5582 10.6225C10.8265 10.5991 10.9782 10.5641 11.0948 10.5058C11.3476 10.3736 11.5382 10.1811 11.6665 9.92831C11.7248 9.81164 11.7657 9.65998 11.789 9.39748C11.8123 9.12914 11.8123 8.77914 11.8123 8.28331V7.43748H9.14067C9.0375 7.92888 8.76843 8.36984 8.37861 8.68632C7.98878 9.0028 7.50195 9.17554 6.99983 9.17554C6.49772 9.17554 6.01088 9.0028 5.62106 8.68632C5.23124 8.36984 4.96216 7.92888 4.859 7.43748H2.18733V8.28331ZM2.18733 6.56248H5.24983C5.489 6.56248 5.68733 6.76081 5.68733 6.99998C5.68733 7.34807 5.82561 7.68191 6.07176 7.92805C6.3179 8.17419 6.65174 8.31248 6.99983 8.31248C7.34793 8.31248 7.68177 8.17419 7.92791 7.92805C8.17405 7.68191 8.31233 7.34807 8.31233 6.99998C8.31233 6.76081 8.51067 6.56248 8.74983 6.56248H11.8123V5.39581H2.18733V6.56248ZM4.08317 3.35414C3.669 3.35414 3.38317 3.35414 3.1615 3.37164C2.94567 3.38914 2.829 3.42414 2.74733 3.46498C2.55289 3.56609 2.40317 3.71581 2.29817 3.91414C2.25733 3.99581 2.22233 4.11248 2.20483 4.32248L2.19317 4.52081H11.8065L11.7948 4.32831C11.7893 4.18571 11.7577 4.04533 11.7015 3.91414C11.5965 3.7197 11.4468 3.56998 11.2523 3.46498C11.123 3.40949 10.9846 3.37786 10.844 3.37164C10.6165 3.35414 10.3307 3.35414 9.9165 3.35414H4.08317Z" fill="var(--fill-0, #64748B)"/>
</g>
</svg>
