<svg preserveAspectRatio="none" width="100%" height="100%" overflow="visible" style="display: block;" viewBox="0 0 16 16" fill="none" xmlns="http://www.w3.org/2000/svg">
<g id="Phone-Regular">
<path id="Vector" fill-rule="evenodd" clip-rule="evenodd" d="M4.44667 1.51332C4.74667 1.55999 4.97333 1.74665 5.12667 1.98665L5.14 2.00665L5.14667 2.01999L6.16 3.85999L6.3 4.12665C6.43333 4.36665 6.52889 4.58221 6.58667 4.77332C6.66667 5.03332 6.69333 5.29332 6.61333 5.54665C6.53333 5.79999 6.37333 5.95999 6.24667 6.07999C6.09333 6.21332 6.01333 6.27999 5.86 6.42665C5.78444 6.49777 5.75778 6.58665 5.78 6.69332C5.80222 6.84888 5.90222 7.04888 6.08 7.29332C6.43333 7.79332 6.96667 8.27332 7.34667 8.65332C7.72667 9.03332 8.20667 9.56665 8.7 9.91999C8.94889 10.0978 9.14889 10.1978 9.3 10.22C9.41556 10.2422 9.50667 10.2155 9.57333 10.14C9.72667 9.98665 9.78 9.90665 9.92667 9.75332C10.04 9.62665 10.2067 9.46665 10.46 9.38665C10.7067 9.30665 10.9667 9.33332 11.2267 9.41332C11.4756 9.49332 11.78 9.63554 12.14 9.83999L13.98 10.8533L14 10.86L14.0133 10.8733C14.2533 11.0267 14.44 11.2533 14.4867 11.5533C14.5333 11.8333 14.44 12.0867 14.34 12.2733C14.1467 12.6333 13.7867 12.9867 13.5267 13.2467C12.8051 14.0119 11.8111 14.4622 10.76 14.5C9.6682 14.4675 8.61045 14.1126 7.72 13.48C6.68055 12.8088 5.71907 12.024 4.85333 11.14C3.97206 10.276 3.18949 9.31677 2.52 8.27999C1.8874 7.38954 1.5325 6.33178 1.5 5.23999C1.53951 4.19119 1.98964 3.19993 2.75333 2.47999C3.02 2.21332 3.36667 1.85332 3.72667 1.65999C3.94372 1.5325 4.19704 1.48089 4.44667 1.51332ZM4.2 2.53332C4 2.63999 3.76 2.87999 3.46 3.17999C3.17021 3.44301 2.93598 3.76136 2.77111 4.11629C2.60624 4.47122 2.51406 4.85555 2.5 5.24665C2.48222 5.98888 2.76889 6.81777 3.36 7.73332C3.92444 8.60888 4.55778 9.40443 5.26 10.12L5.56 10.4267H5.56667C6.37775 11.2621 7.28135 12.0024 8.26 12.6333C8.98924 13.1526 9.85245 13.4511 10.7467 13.4933C11.1378 13.4793 11.5221 13.3871 11.877 13.2222C12.232 13.0573 12.5503 12.8231 12.8133 12.5333C13.0751 12.2936 13.3038 12.0201 13.4933 11.72L13.4733 11.7067L11.6533 10.7067C11.4194 10.57 11.174 10.454 10.92 10.36C10.868 10.3446 10.8142 10.3357 10.76 10.3333L10.66 10.4267C10.5933 10.4933 10.4333 10.6933 10.28 10.84C9.94667 11.1733 9.52667 11.2667 9.13333 11.2C8.76643 11.1176 8.4211 10.9586 8.12 10.7333C7.53333 10.3067 6.96 9.67999 6.64 9.35332C6.32 9.02665 5.68667 8.46665 5.26667 7.87999C5.0414 7.57889 4.88237 7.23356 4.8 6.86665C4.72667 6.46665 4.82 6.05332 5.15333 5.71999C5.30667 5.56665 5.5 5.40665 5.56667 5.33999L5.66 5.23999C5.66 5.25332 5.68 5.22665 5.63333 5.07332C5.54251 4.82006 5.42637 4.5766 5.28667 4.34665L4.28667 2.52665L4.27333 2.50665L4.2 2.53332Z" fill="var(--fill-0, #64748B)"/>
</g>
</svg>
