<svg preserveAspectRatio="none" width="100%" height="100%" overflow="visible" style="display: block;" viewBox="0 0 14 14" fill="none" xmlns="http://www.w3.org/2000/svg">
<g id="UsersThree-Regular">
<path id="Vector" fill-rule="evenodd" clip-rule="evenodd" d="M6.99996 4.22917C7.51089 4.23042 8.00896 4.38951 8.42602 4.68465C8.84308 4.9798 9.15877 5.3966 9.32988 5.87803C9.501 6.35946 9.51919 6.882 9.38197 7.37416C9.24475 7.86632 8.95882 8.30406 8.5633 8.6275C8.92895 8.78923 9.25745 9.02441 9.5284 9.31843C9.79934 9.61245 10.0069 9.95904 10.1383 10.3367C10.2258 10.5875 10.3191 10.8325 10.2375 11.1883C10.2025 11.34 10.1208 11.48 10.045 11.5967C9.96913 11.7017 9.8583 11.83 9.72996 11.9117C9.40913 12.1158 9.06496 12.1042 8.71496 12.1042H5.28496C4.93496 12.1042 4.58496 12.1158 4.26996 11.9117C4.14515 11.8262 4.03817 11.7172 3.95496 11.5908C3.86482 11.4686 3.79943 11.3299 3.76246 11.1825C3.6808 10.8325 3.77413 10.5875 3.86746 10.3367C3.99816 9.95958 4.20487 9.61333 4.47477 9.31934C4.74468 9.02535 5.07205 8.78988 5.43663 8.6275C5.03772 8.30569 4.74863 7.8679 4.60934 7.37466C4.47005 6.88141 4.48743 6.35707 4.65909 5.87414C4.83074 5.3912 5.14819 4.97352 5.56754 4.67883C5.98689 4.38415 6.48743 4.22702 6.99996 4.22917ZM6.99996 9.1875C5.82163 9.1875 5.01663 9.73584 4.68996 10.6342L4.6083 10.8792C4.60441 10.9064 4.60635 10.9433 4.61413 10.99L4.6258 11.0192C4.65225 11.0684 4.68565 11.1136 4.72496 11.1533L4.7483 11.1767C4.80663 11.2175 4.8533 11.2292 5.28496 11.2292H8.71496C9.15246 11.2292 9.19913 11.2175 9.25163 11.1767L9.27496 11.1533C9.31428 11.1136 9.34767 11.0684 9.37413 11.0192L9.3858 10.99C9.39663 10.9541 9.39863 10.916 9.39163 10.8792L9.3158 10.6342C8.98913 9.73584 8.1783 9.1875 6.99996 9.1875ZM6.99996 5.10417C6.7893 5.10417 6.5807 5.14566 6.38607 5.22628C6.19145 5.3069 6.01461 5.42506 5.86564 5.57402C5.71668 5.72298 5.59852 5.89982 5.51791 6.09445C5.43729 6.28908 5.3958 6.49768 5.3958 6.70834C5.3958 6.919 5.43729 7.1276 5.51791 7.32223C5.59852 7.51685 5.71668 7.69369 5.86564 7.84265C6.01461 7.99162 6.19145 8.10978 6.38607 8.19039C6.5807 8.27101 6.7893 8.3125 6.99996 8.3125C7.42541 8.3125 7.83344 8.14349 8.13428 7.84265C8.43512 7.54182 8.60413 7.13379 8.60413 6.70834C8.60413 6.28289 8.43512 5.87486 8.13428 5.57402C7.83344 5.27318 7.42541 5.10417 6.99996 5.10417Z" fill="var(--fill-0, white)"/>
<path id="Vector_2" d="M4.08327 1.89583C4.88827 1.89583 5.60577 2.28083 6.06077 2.87583C6.13116 2.96866 6.1618 3.08565 6.14593 3.20106C6.13007 3.31647 6.06901 3.42086 5.97619 3.49125C5.93022 3.52611 5.87785 3.55157 5.82204 3.56618C5.76624 3.58079 5.70811 3.58427 5.65096 3.57642C5.53555 3.56055 5.43116 3.49949 5.36077 3.40667C5.21153 3.22016 5.02239 3.06948 4.80726 2.9657C4.59212 2.86191 4.35646 2.80767 4.1176 2.80695C3.87874 2.80623 3.64275 2.85906 3.427 2.96154C3.21124 3.06403 3.0212 3.21357 2.87084 3.39918C2.72048 3.58478 2.61364 3.80172 2.55816 4.03405C2.50269 4.26638 2.49999 4.50819 2.55026 4.7417C2.60054 4.97521 2.70251 5.19448 2.84869 5.3834C2.99486 5.57231 3.18152 5.72606 3.39494 5.83333C3.5466 5.90333 3.64577 6.055 3.64577 6.22417V6.52167C3.64577 6.72583 3.50577 6.90083 3.31327 6.9475C2.91714 7.03021 2.55334 7.22562 2.26564 7.51021C1.97795 7.7948 1.77861 8.15646 1.6916 8.55167C1.6846 8.58854 1.6866 8.62656 1.69744 8.6625L1.7091 8.69167C1.73556 8.74091 1.76896 8.7861 1.80827 8.82583L1.8316 8.84917C1.88994 8.89 1.93077 8.90167 2.36827 8.90167H2.87577C2.9918 8.90167 3.10308 8.94776 3.18513 9.02981C3.26718 9.11186 3.31327 9.22314 3.31327 9.33917C3.31327 9.4552 3.26718 9.56648 3.18513 9.64853C3.10308 9.73058 2.9918 9.77667 2.87577 9.77667H2.36827C2.01827 9.77667 1.66827 9.78834 1.35327 9.58417C1.22846 9.49866 1.12147 9.38969 1.03827 9.26334C0.948129 9.14105 0.882739 9.00235 0.845769 8.855C0.764102 8.505 0.857435 8.26 0.944935 8.00917C1.07629 7.63154 1.28389 7.28495 1.55484 6.99093C1.82578 6.6969 2.15428 6.46173 2.51994 6.3C2.11869 5.97882 1.82748 5.54061 1.68676 5.04629C1.54604 4.55197 1.56281 4.02608 1.73474 3.54173C1.90666 3.05738 2.22521 2.63862 2.6461 2.34365C3.06699 2.04868 3.56932 1.89216 4.08327 1.89583ZM9.9166 1.89583C10.4275 1.89709 10.9256 2.05617 11.3427 2.35132C11.7597 2.64647 12.0754 3.06327 12.2465 3.54469C12.4176 4.02612 12.4358 4.54866 12.2986 5.04082C12.1614 5.53298 11.8755 5.97073 11.4799 6.29417C11.8456 6.45589 12.1741 6.69107 12.445 6.98509C12.716 7.27912 12.9236 7.62571 13.0549 8.00334C13.1424 8.25417 13.2358 8.49917 13.1541 8.855C13.1191 9.00667 13.0374 9.14667 12.9616 9.26334C12.8858 9.36834 12.7749 9.49667 12.6466 9.57834C12.3258 9.7825 11.9816 9.77083 11.6316 9.77083H11.1299C11.0139 9.77083 10.9026 9.72474 10.8206 9.64269C10.7385 9.56065 10.6924 9.44937 10.6924 9.33333C10.6924 9.2173 10.7385 9.10602 10.8206 9.02398C10.9026 8.94193 11.0139 8.89583 11.1299 8.89583H11.6316C12.0691 8.89583 12.1158 8.88417 12.1683 8.84333L12.1916 8.82C12.2396 8.77271 12.2791 8.71744 12.3083 8.65667C12.3172 8.62026 12.3172 8.58224 12.3083 8.54583L12.2324 8.30083C12.1131 7.96065 11.9082 7.65691 11.6375 7.41887C11.3667 7.18082 11.0393 7.01648 10.6866 6.94167C10.5915 6.91816 10.5071 6.86342 10.4468 6.78621C10.3865 6.709 10.3539 6.61379 10.3541 6.51583V6.22417C10.3541 6.04917 10.4533 5.8975 10.6049 5.8275C10.824 5.72305 11.0166 5.57025 11.1681 5.38059C11.3196 5.19093 11.426 4.96937 11.4795 4.73259C11.5329 4.49582 11.5319 4.25 11.4766 4.01366C11.4212 3.77733 11.313 3.55663 11.16 3.3682C11.0069 3.17978 10.8132 3.02853 10.5932 2.92585C10.3733 2.82318 10.1329 2.77176 9.89019 2.77546C9.64749 2.77916 9.40879 2.8379 9.19208 2.94723C8.97537 3.05657 8.7863 3.21366 8.6391 3.40667C8.56948 3.49949 8.46584 3.56086 8.35097 3.57727C8.23611 3.59368 8.11943 3.56379 8.0266 3.49417C7.93378 3.42455 7.87241 3.32091 7.856 3.20604C7.83959 3.09117 7.86948 2.97449 7.9391 2.88167C8.3941 2.28083 9.10577 1.89583 9.92244 1.89583" fill="var(--fill-0, white)"/>
</g>
</svg>
