<svg preserveAspectRatio="none" width="100%" height="100%" overflow="visible" style="display: block;" viewBox="0 0 14 14" fill="none" xmlns="http://www.w3.org/2000/svg">
<g id="Bell-Regular">
<path id="Vector" fill-rule="evenodd" clip-rule="evenodd" d="M6.99997 1.3125C9.19331 1.3125 10.9375 3.17917 10.9375 5.425V5.64667C10.9375 6.25333 11.1125 6.8425 11.4508 7.35L11.9875 8.14917C12.1493 8.39086 12.2424 8.67201 12.2567 8.96252C12.2711 9.25304 12.2062 9.54199 12.0689 9.79846C11.9317 10.0549 11.7274 10.2693 11.4777 10.4185C11.228 10.5678 10.9425 10.6464 10.6516 10.6458H9.43831C9.33351 11.2161 9.03217 11.7315 8.58669 12.1026C8.14121 12.4737 7.57976 12.6769 6.99997 12.6769C6.42019 12.6769 5.85874 12.4737 5.41326 12.1026C4.96777 11.7315 4.66643 11.2161 4.56164 10.6458H3.34831C2.06497 10.6458 1.30664 9.21667 2.01247 8.14917L2.54914 7.35C2.88164 6.8425 3.06247 6.25333 3.06247 5.64667V5.425C3.06247 3.17333 4.80664 1.3125 6.99997 1.3125ZM5.45997 10.6458C5.55716 10.979 5.7598 11.2717 6.03747 11.48C6.31515 11.6883 6.65288 11.8008 6.99997 11.8008C7.34707 11.8008 7.6848 11.6883 7.96247 11.48C8.24015 11.2717 8.44279 10.979 8.53997 10.6458H5.45997ZM6.99997 2.1875C6.58626 2.19883 6.17883 2.29158 5.80098 2.46044C5.42313 2.62931 5.08226 2.87098 4.79785 3.17164C4.51344 3.4723 4.29106 3.82606 4.14344 4.21271C3.99581 4.59935 3.92582 5.0113 3.93747 5.425V5.64667C3.93747 6.42833 3.70414 7.18667 3.27831 7.83417L2.74164 8.63333C2.41497 9.1175 2.76497 9.765 3.34831 9.765H10.6516C11.235 9.765 11.585 9.1175 11.2583 8.63333L10.7216 7.82833C10.2921 7.17959 10.0629 6.41887 10.0625 5.64083V5.425C10.0741 5.0113 10.0041 4.59935 9.85651 4.21271C9.70888 3.82606 9.48651 3.4723 9.2021 3.17164C8.91769 2.87098 8.57681 2.62931 8.19896 2.46044C7.82111 2.29158 7.41369 2.19883 6.99997 2.1875Z" fill="var(--fill-0, #64748B)"/>
</g>
</svg>
