<svg preserveAspectRatio="none" width="100%" height="100%" overflow="visible" style="display: block;" viewBox="0 0 16 16" fill="none" xmlns="http://www.w3.org/2000/svg">
<g id="Clock3-Regular">
<path id="Vector" d="M8 4.16671C8.27333 4.16671 8.5 4.39337 8.5 4.66671V7.50004H10.6667C10.7993 7.50004 10.9265 7.55272 11.0202 7.64649C11.114 7.74026 11.1667 7.86743 11.1667 8.00004C11.1667 8.13265 11.114 8.25983 11.0202 8.35359C10.9265 8.44736 10.7993 8.50004 10.6667 8.50004H8C7.86739 8.50004 7.74022 8.44736 7.64645 8.35359C7.55268 8.25983 7.5 8.13265 7.5 8.00004V4.66671C7.5 4.39337 7.72667 4.16671 8 4.16671Z" fill="var(--fill-0, #111111)"/>
<path id="Vector_2" fill-rule="evenodd" clip-rule="evenodd" d="M8 1.5C9.72391 1.5 11.3772 2.18482 12.5962 3.40381C13.8152 4.62279 14.5 6.27609 14.5 8C14.5 9.72391 13.8152 11.3772 12.5962 12.5962C11.3772 13.8152 9.72391 14.5 8 14.5C6.27609 14.5 4.62279 13.8152 3.40381 12.5962C2.18482 11.3772 1.5 9.72391 1.5 8C1.5 6.27609 2.18482 4.62279 3.40381 3.40381C4.62279 2.18482 6.27609 1.5 8 1.5ZM8 2.5C6.54131 2.5 5.14236 3.07946 4.11091 4.11091C3.07946 5.14236 2.5 6.54131 2.5 8C2.5 9.45869 3.07946 10.8576 4.11091 11.8891C5.14236 12.9205 6.54131 13.5 8 13.5C9.45869 13.5 10.8576 12.9205 11.8891 11.8891C12.9205 10.8576 13.5 9.45869 13.5 8C13.5 6.54131 12.9205 5.14236 11.8891 4.11091C10.8576 3.07946 9.45869 2.5 8 2.5Z" fill="var(--fill-0, #111111)"/>
</g>
</svg>
