<svg preserveAspectRatio="none" width="100%" height="100%" overflow="visible" style="display: block;" viewBox="0 0 24 24" fill="none" xmlns="http://www.w3.org/2000/svg">
<g id="Pause-Regular">
<path id="Vector" fill-rule="evenodd" clip-rule="evenodd" d="M8.75006 2.75C9.28049 2.75 9.7892 2.96072 10.1643 3.33579C10.5393 3.71086 10.7501 4.21957 10.7501 4.75V19.25C10.7501 19.7804 10.5393 20.2891 10.1643 20.6642C9.7892 21.0393 9.28049 21.25 8.75006 21.25H6.25006C5.71963 21.25 5.21092 21.0393 4.83585 20.6642C4.46077 20.2891 4.25006 19.7804 4.25006 19.25V4.75C4.25006 3.65 5.15006 2.75 6.25006 2.75H8.75006ZM6.25006 4.25C6.11745 4.25 5.99028 4.30268 5.89651 4.39645C5.80274 4.49022 5.75006 4.6174 5.75006 4.75V19.25C5.75006 19.53 5.97006 19.75 6.25006 19.75H8.75006C8.88267 19.75 9.00985 19.6973 9.10362 19.6036C9.19738 19.5098 9.25006 19.3826 9.25006 19.25V4.75C9.25006 4.6174 9.19738 4.49022 9.10362 4.39645C9.00985 4.30268 8.88267 4.25 8.75006 4.25H6.25006ZM17.7501 2.75C18.2805 2.75 18.7892 2.96072 19.1643 3.33579C19.5393 3.71086 19.7501 4.21957 19.7501 4.75V19.25C19.7501 19.7804 19.5393 20.2891 19.1643 20.6642C18.7892 21.0393 18.2805 21.25 17.7501 21.25H15.2501C14.7196 21.25 14.2109 21.0393 13.8358 20.6642C13.4608 20.2891 13.2501 19.7804 13.2501 19.25V4.75C13.2501 3.65 14.1501 2.75 15.2501 2.75H17.7501ZM15.2501 4.25C15.1175 4.25 14.9903 4.30268 14.8965 4.39645C14.8027 4.49022 14.7501 4.6174 14.7501 4.75V19.25C14.7501 19.53 14.9701 19.75 15.2501 19.75H17.7501C17.8827 19.75 18.0098 19.6973 18.1036 19.6036C18.1974 19.5098 18.2501 19.3826 18.2501 19.25V4.75C18.2501 4.6174 18.1974 4.49022 18.1036 4.39645C18.0098 4.30268 17.8827 4.25 17.7501 4.25H15.2501Z" fill="var(--fill-0, #111111)"/>
</g>
</svg>
