<svg preserveAspectRatio="none" width="100%" height="100%" overflow="visible" style="display: block;" viewBox="0 0 24 24" fill="none" xmlns="http://www.w3.org/2000/svg">
<g id="MicOff-Regular">
<path id="Vector" d="M3.47001 3.47C3.77001 3.17 4.24001 3.17 4.53001 3.47L20.53 19.47C20.6037 19.5387 20.6628 19.6215 20.7038 19.7135C20.7448 19.8055 20.7668 19.9048 20.7686 20.0055C20.7704 20.1062 20.7519 20.2062 20.7141 20.2996C20.6764 20.393 20.6203 20.4778 20.549 20.549C20.4778 20.6203 20.393 20.6764 20.2996 20.7141C20.2062 20.7518 20.1062 20.7704 20.0055 20.7686C19.9048 20.7668 19.8055 20.7448 19.7135 20.7038C19.6215 20.6628 19.5387 20.6037 19.47 20.53L16.47 17.53C15.3321 18.1942 14.0622 18.6004 12.75 18.72V20.25H15C15.1989 20.25 15.3897 20.329 15.5303 20.4697C15.671 20.6103 15.75 20.8011 15.75 21C15.75 21.1989 15.671 21.3897 15.5303 21.5303C15.3897 21.671 15.1989 21.75 15 21.75H9.00001C8.8011 21.75 8.61033 21.671 8.46968 21.5303C8.32903 21.3897 8.25001 21.1989 8.25001 21C8.25001 20.8011 8.32903 20.6103 8.46968 20.4697C8.61033 20.329 8.8011 20.25 9.00001 20.25H11.25V18.72C9.448 18.5572 7.73995 17.843 6.35852 16.6745C4.97708 15.506 3.98941 13.9401 3.53001 12.19C3.48781 12.0005 3.5207 11.8021 3.62176 11.6364C3.72282 11.4707 3.88419 11.3506 4.07194 11.3014C4.25969 11.2522 4.45921 11.2777 4.62855 11.3726C4.79789 11.4674 4.92387 11.6242 4.98001 11.81C5.25326 12.8673 5.76182 13.8492 6.46772 14.6824C7.17362 15.5156 8.05863 16.1786 9.05666 16.6218C10.0547 17.0651 11.14 17.2772 12.2314 17.2422C13.3229 17.2073 14.3924 16.9262 15.36 16.42L13.46 14.52C12.7473 14.7525 11.9897 14.8126 11.2492 14.6955C10.5088 14.5783 9.80669 14.2872 9.20059 13.8461C8.59449 13.4049 8.10167 12.8263 7.76259 12.1577C7.42351 11.4891 7.24784 10.7496 7.25001 10V8.31L3.47001 4.53C3.32956 4.38937 3.25067 4.19875 3.25067 4C3.25067 3.80125 3.32956 3.61062 3.47001 3.47ZM19.02 11.81C19.0762 11.6242 19.2021 11.4674 19.3715 11.3726C19.5408 11.2777 19.7403 11.2522 19.9281 11.3014C20.1158 11.3506 20.2772 11.4707 20.3783 11.6364C20.4793 11.8021 20.5122 12.0005 20.47 12.19C20.2226 13.1313 19.8241 14.0263 19.29 14.84C19.1786 15.0058 19.0059 15.1205 18.81 15.1589C18.614 15.1974 18.4108 15.1564 18.245 15.045C18.0793 14.9336 17.9645 14.7609 17.9261 14.565C17.8876 14.369 17.9286 14.1658 18.04 14C18.4867 13.3333 18.8133 12.6033 19.02 11.81ZM15.25 10V7C15.2514 6.31872 15.0387 5.65423 14.6419 5.10042C14.2451 4.54661 13.6844 4.1315 13.0388 3.91374C12.3933 3.69598 11.6956 3.68659 11.0445 3.8869C10.3933 4.0872 9.82156 4.48707 9.41001 5.03C9.35242 5.11382 9.27838 5.18504 9.19239 5.23935C9.10641 5.29366 9.01028 5.32991 8.90985 5.34591C8.80942 5.36191 8.70678 5.35731 8.60818 5.3324C8.50958 5.30749 8.41708 5.26279 8.33629 5.20101C8.25551 5.13924 8.18813 5.06168 8.13826 4.97305C8.08839 4.88442 8.05706 4.78657 8.04618 4.68546C8.03531 4.58434 8.04511 4.48207 8.07499 4.38487C8.10487 4.28766 8.15421 4.19754 8.22001 4.12C8.819 3.32245 9.65432 2.73417 10.6071 2.43893C11.5598 2.14368 12.5814 2.1565 13.5264 2.47557C14.4714 2.79464 15.2917 3.4037 15.8705 4.21603C16.4493 5.02837 16.7571 6.00259 16.75 7V10C16.75 10.62 16.64 11.2033 16.42 11.75C16.3471 11.9356 16.2034 12.0847 16.0205 12.1644C15.8377 12.2441 15.6307 12.2479 15.445 12.175C15.2594 12.1021 15.1103 11.9584 15.0306 11.7755C14.9509 11.5927 14.9471 11.3856 15.02 11.2C15.1733 10.8267 15.25 10.4267 15.25 10ZM8.75001 10C8.75069 10.4415 8.84133 10.8783 9.01641 11.2836C9.19148 11.689 9.4473 12.0544 9.76828 12.3576C10.0893 12.6608 10.4686 12.8954 10.8833 13.0471C11.2979 13.1988 11.7392 13.2645 12.18 13.24L8.75001 9.81V10Z" fill="var(--fill-0, #111111)"/>
</g>
</svg>
