<svg preserveAspectRatio="none" width="100%" height="100%" overflow="visible" style="display: block;" viewBox="0 0 16 16" fill="none" xmlns="http://www.w3.org/2000/svg">
<g id="SignalAltHigh-Regular">
<path id="Vector" d="M3.33333 10.3333C3.88667 10.3333 4.33333 10.78 4.33333 11.3333V12.6667C4.33333 13.22 3.88667 13.6667 3.33333 13.6667H2.66667C2.40145 13.6667 2.1471 13.5613 1.95956 13.3738C1.77202 13.1862 1.66667 12.9319 1.66667 12.6667V11.3333C1.66667 10.78 2.11333 10.3333 2.66667 10.3333H3.33333ZM8.33333 6.33333C8.88667 6.33333 9.33333 6.78 9.33333 7.33333V12.6667C9.33333 13.22 8.88667 13.6667 8.33333 13.6667H7.66667C7.40145 13.6667 7.1471 13.5613 6.95956 13.3738C6.77202 13.1862 6.66667 12.9319 6.66667 12.6667V7.33333C6.66667 6.78 7.11333 6.33333 7.66667 6.33333H8.33333ZM13.3333 2.33333C13.8867 2.33333 14.3333 2.78 14.3333 3.33333V12.6667C14.3333 13.22 13.8867 13.6667 13.3333 13.6667H12.6667C12.4015 13.6667 12.1471 13.5613 11.9596 13.3738C11.772 13.1862 11.6667 12.9319 11.6667 12.6667V3.33333C11.6667 2.78 12.1133 2.33333 12.6667 2.33333H13.3333Z" fill="var(--fill-0, #111111)"/>
</g>
</svg>
